<svg xmlns="http://www.w3.org/2000/svg" viewBox="0 0 96 96" fill="none">
  <rect width="96" height="96" rx="24" fill="#0F6B49"/>
  <rect x="10" y="12" width="76" height="56" rx="18" fill="#F7F1DE"/>
  <circle cx="34" cy="40" r="11" fill="#D74139"/>
  <path d="M28 46C31.5 39.333 35.667 34.667 40.5 32C39.333 38 35.167 42.667 28 46Z" fill="#0F6B49"/>
  <path d="M29 34.5C34.2 35.6 38.033 38.433 40.5 43C34.9 43 31.067 40.167 29 34.5Z" fill="#138A5A"/>
  <path d="M48 29H58.5L52.5 36.2L60.5 51H53.8L48.6 41.2L46 44.1V51H40V29H46V36L48 33.5V29Z" fill="#0F6B49"/>
  <text x="48" y="82" text-anchor="middle" font-family="Arial, sans-serif" font-size="12" font-weight="700" fill="#FFFFFF" letter-spacing="0.2">KBANK</text>
</svg>
